<?xml version="1.0" encoding="UTF-8"?><svg id="b" xmlns="http://www.w3.org/2000/svg" viewBox="0 0 748.65 552.23"><g id="c"><path d="M477.4,63.3c10.9-5.7,44-21.3,55.3-23.5,18.8-3.7,52.7,24.2,71.5,20,7.5-1.7,22.6-10.7,30.1-14.7l47-25.1c45.2-24.4,50.1-31.3,60.3,26.5,8.2,46.8-1.1,55.9-32.8,87.3-14,13.9-27.9,27.9-41.6,41.9-5.5,5.6-13.6,12.1-15.1,20,.3.1.6.2.8.3,13.8,4.8,90.3,4.5,94.9,12.4,2,3.4,0,9.7-1.3,13.3-5.4,15.7-14.8,28.8-30.1,36.1-15,7.1-33.3,7.1-49.5,10.3-7.3,1.4-14.5,4.1-21.6,6.4-57.9,32.2-55.1,73.3-54.9,130.9l.2,63.9c0,29.7,1.9,58.1-28.1,75.2-13.4,7.7-29.4,9.8-44.3,5.6-21.2-5.9-35.5-23-39.9-44.3-1.9-6.3-1.3-37-1.3-45.3l.2-80.5.2-316.7h0Z" fill="#"/><path d="M481.8,441.6c2.3-15.4,6.6-30.5,12.6-44.8,22.8-52.4,62.5-92,115.9-112.6,5.7-2.2,30.5-11.7,35.1-9.7-57.9,32.2-55.1,73.3-54.9,130.9l.2,63.9c0,29.7,1.9,58.1-28.1,75.2-13.4,7.7-29.4,9.8-44.3,5.6-21.2-5.9-35.5-23-39.9-44.3,0-24.7-.9-39.7,3.5-64.2h-.1Z" fill="#"/><path d="M58.55,353.8h0c32.34,0,58.55,26.24,58.55,58.6v81.1c0,32.36-26.21,58.6-58.55,58.6h0c-32.34,0-58.55-26.24-58.55-58.6v-81.1c0-32.36,26.21-58.6,58.55-58.6Z" fill="#"/><path d="M216.65,200h0c32.34,0,58.55,26.24,58.55,58.6v234.9c0,32.36-26.21,58.6-58.55,58.6h0c-32.34,0-58.55-26.24-58.55-58.6v-234.9c0-32.36,26.21-58.6,58.55-58.6Z" fill="#"/><path d="M376.05,0h0c32.34,0,58.55,26.24,58.55,58.6v434.9c0,32.36-26.21,58.6-58.55,58.6h0c-32.34,0-58.55-26.24-58.55-58.6V58.6c0-32.36,26.21-58.6,58.55-58.6Z" fill="#"/></g></svg>