<svg xmlns="http://www.w3.org/2000/svg" viewBox="-83 -24 600 600"><path d="M58.55,353.8c32.34,0,58.55,26.24,58.55,58.6v81.1c0,32.36-26.21,58.6-58.55,58.6S0,525.86,0,493.5v-81.1c0-32.36,26.21-58.6,58.55-58.6Z" fill="#d67a25"/><path d="M216.65,200c32.34,0,58.55,26.24,58.55,58.6v234.9c0,32.36-26.21,58.6-58.55,58.6s-58.55-26.24-58.55-58.6V258.6c0-32.36,26.21-58.6,58.55-58.6Z" fill="#d67a25"/><path d="M376.05,0c32.34,0,58.55,26.24,58.55,58.6v434.9c0,32.36-26.21,58.6-58.55,58.6s-58.55-26.24-58.55-58.6V58.6C317.5,26.24,343.71,0,376.05,0Z" fill="#d67a25"/></svg>
